<svg id="Layer_1" enable-background="new 0 0 511.68 511.68" height="512" viewBox="0 0 511.68 511.68" width="512" xmlns="http://www.w3.org/2000/svg"><path d="m511.68 446.338c0-34.187-27.813-62-62-62-.442 0-19.985-.001-19.985-.001 1.97-2.055 3.855-4.203 5.645-6.447 18.833-23.607 25.57-54.979 18.485-86.071-.016-.071-.033-.143-.051-.214-12.379-52.004-53.463-88.783-37.52-146.386 1.5-5.6-.36-11.563-4.779-15.316-4.42-3.753-10.606-4.624-15.888-2.235-11.989 5.419-24.908 13.884-38.127 24.924-9.591-36.837-64.194-119.43-86.694-141.382-9.673-10.5-20.515-10.483-30.173 0-22.535 22.007-77.07 104.492-86.694 141.382-13.217-11.039-26.138-19.505-38.127-24.924-5.284-2.389-11.469-1.518-15.888 2.235s-6.28 9.716-4.779 15.316c15.914 57.699-24.822 92.898-37.094 144.684-7.579 30.778-.938 62.451 18.22 86.899 2.069 2.64 4.263 5.148 6.558 7.535h-21.11c-82.271 3.415-82.208 120.615 0 124 0 0 389.674-.029 390.009-.051 33.259-1.065 59.992-28.435 59.992-61.948zm-335.574-98.904c1.771-7.275 5.157-14.296 8.742-21.73 4.21-8.73 8.974-18.608 11.337-30.147.511.503 1.023 1.015 1.535 1.534 4.288 4.351 10.785 5.666 16.43 3.326 5.643-2.341 9.303-7.87 9.252-13.979-.891-10.73 19.96-46.113 32.324-61.582 4.247 5.616 9.534 13.105 14.846 21.652 12.958 20.845 17.524 34.294 17.478 39.931-.05 6.109 3.609 11.638 9.252 13.979 5.645 2.342 12.142 1.025 16.43-3.326.515-.522 1.028-1.036 1.542-1.541 3.882 20.089 15.392 34.485 20.259 52.628 2.063 9.182.192 18.274-5.142 24.96-5.247 6.577-13.183 10.199-22.346 10.199h-104.637c-8.902 0-16.756-3.766-22.115-10.604-5.52-7.046-7.414-16.253-5.187-25.3zm-88.955-50.396c3.796-15.596 10.695-29.899 17.998-45.042 11.289-23.408 23.715-49.169 23.548-81.213 7.868 6.094 16.035 13.411 24.31 21.807 4.287 4.351 10.786 5.666 16.43 3.326 5.643-2.341 9.303-7.87 9.252-13.979-.143-17.365 13.478-49.16 37.371-87.233 15.332-24.432 30.555-44.583 39.62-55.416 9.065 10.833 24.289 30.984 39.62 55.416 23.893 38.073 37.514 69.868 37.371 87.233-.05 6.109 3.609 11.638 9.252 13.979 5.644 2.34 12.143 1.026 16.43-3.326 8.285-8.405 16.46-15.729 24.336-21.827-.39 50.991 30.272 83.659 41.908 127.825 10.661 43.662-20.447 85.761-65.688 85.711 7.126-12.664 9.281-27.847 5.852-42.891-.016-.071-.033-.143-.05-.214-2.508-10.304-6.757-19.181-10.866-27.767-7.253-15.154-12.982-27.124-8.478-43.933 1.5-5.6-.36-11.563-4.779-15.316s-10.606-4.624-15.888-2.235c-4.597 2.078-9.069 4.763-13.271 7.713-11.952-28.475-36.477-59.769-42.771-66.115-7.531-8.254-18.365-8.223-25.864 0-6.294 6.346-30.818 37.64-42.771 66.115-4.201-2.95-8.673-5.635-13.271-7.713-5.283-2.389-11.469-1.518-15.888 2.235s-6.28 9.716-4.779 15.316c4.487 16.746-1.138 28.41-8.26 43.177-4.104 8.51-8.348 17.31-10.86 27.627-3.753 15.245-1.516 30.87 6.064 44.012-44.882.124-77.317-44.178-65.878-87.272zm-57.471 149.299c0-17.645 14.355-32 32-32h334.919c-11.764 18.403-11.764 45.597-.001 64h-334.919c-17.644.001-31.999-14.355-31.999-32zm420 32.001c-17.645 0-32-14.355-32-32 1.758-42.452 62.248-42.439 63.999 0 .001 17.645-14.354 32-31.999 32z"/></svg>