<?xml version="1.0"?>
<svg xmlns="http://www.w3.org/2000/svg" id="Icons" viewBox="0 0 74 74" width="512" height="512"><path d="M38.4,72a22.488,22.488,0,0,1-7.762-1.351h0c-8.918-3.269-14.867-8.417-17.68-15.3-4.617-11.3.865-23.076,1.1-23.571a1,1,0,0,1,1.867.161,13.173,13.173,0,0,0,4.1,5.836c2.289-11.488,12.31-18.44,12.755-18.745,6.466-5.176,1.185-15.46,1.131-15.563a1,1,0,0,1,1.515-1.241C53.233,16.676,52.209,31.23,50.772,37.21A9.7,9.7,0,0,0,54.4,28.236a1,1,0,0,1,1.818-.7,45.31,45.31,0,0,1,4.674,9.623A27.328,27.328,0,0,1,56.2,63.527l-.214.261A22.7,22.7,0,0,1,38.4,72Zm-7.074-3.229A20.492,20.492,0,0,0,38.4,70,20.71,20.71,0,0,0,54.44,62.516l.2-.25A25.34,25.34,0,0,0,59,37.821a45.333,45.333,0,0,0-2.688-6.149c-1.1,6.017-6.857,8.815-6.927,8.848a1,1,0,0,1-1.332-1.331c.316-.678,7.2-16.1-10.92-32.841,1.156,4.007,1.847,10.274-3.171,14.288-.167.118-10.787,7.506-12.237,19.1a1,1,0,0,1-1.554.7A18.559,18.559,0,0,1,15,34.859C13.687,38.7,11.659,46.9,14.814,54.6c2.594,6.335,8.149,11.1,16.511,14.166Z"/><path d="M34.139,71.592a1,1,0,0,1-.644-.235C20.752,60.615,29.73,46.878,29.822,46.741a1,1,0,0,1,1.829.494,6.707,6.707,0,0,0,1.56,4.191,20.323,20.323,0,0,1,8.815-19.648A1,1,0,0,1,43.418,33.1a6.942,6.942,0,0,0-.806,3.385,7.34,7.34,0,0,0,1.256,3.837l.4.611a62.7,62.7,0,0,0,4.3,5.662,17.628,17.628,0,0,1,2.839,4.833c5.012,10.333-3.6,18.478-3.684,18.56a1,1,0,0,1-1.36-1.466c.313-.292,7.625-7.26,3.223-16.265a.966.966,0,0,1-.045-.109,15.726,15.726,0,0,0-2.512-4.275,64.528,64.528,0,0,1-4.437-5.845l-.4-.611a9.341,9.341,0,0,1-1.582-4.89,9,9,0,0,1,.052-1.167c-2.88,2.723-7.1,8.52-5.11,18a1,1,0,0,1-1.269,1.163,6.829,6.829,0,0,1-4.06-4.287c-1.774,4.04-3.9,12.461,4.559,19.594a1,1,0,0,1-.645,1.765Z"/></svg>
