<svg id="Capa_1" enable-background="new 0 0 511.878 511.878" height="512" viewBox="0 0 511.878 511.878" width="512" xmlns="http://www.w3.org/2000/svg"><g><g><path d="m22.5 112.141h57.434v132.707h-57.434c-8.284 0-15-6.716-15-15v-102.707c0-8.284 6.716-15 15-15z" fill="#fd4755"/><path d="m489.378 244.84h-57.434v-132.707h57.434c8.284 0 15 6.716 15 15v102.707c0 8.284-6.716 15-15 15z" fill="#fe646f"/><path d="m489.378 112.133h-20c8.284 0 15 6.716 15 15v102.707c0 8.284-6.716 15-15 15h20c8.284 0 15-6.716 15-15v-102.707c0-8.284-6.716-15-15-15z" fill="#fd4755"/><path d="m188.673 164.28 8.905 50.192-24.797 4.989 27.042 33.738c1.422 1.774 2.197 3.98 2.197 6.254v170.515c0 8.284 6.716 15 15 15h81.971c8.284 0 15-6.716 15-15v-167.532c0-3.269 1.597-6.331 4.278-8.201l14.478-10.102c6.701-4.676 10.695-12.331 10.695-20.503v-59.35z" fill="#fed2a4"/><path d="m323.441 164.28v59.351c0 8.171-3.993 15.827-10.695 20.503l-14.478 10.102c-2.681 1.87-4.278 4.933-4.278 8.201v167.531c0 8.284-6.716 15-15 15h20c8.284 0 15-6.716 15-15v-167.532c0-3.269 1.597-6.331 4.278-8.201l14.478-10.102c6.701-4.676 10.695-12.331 10.695-20.503v-59.35z" fill="#ffbd86"/><path d="m376.001 212.971-9.647-5.408-10.728 5.408h-229.749v-68.962h229.749l10.29 5.344 10.085-5.344z" fill="#efedef"/><path d="m355.626 144.01h30v68.96h-30z" fill="#d7d0d6"/><path d="m227.367 125.847h38.69l38.69 10 .004 35.466h-38.694-38.69l-7.727-16.048z" fill="#ffbd86"/><path d="m208.02 189.66c-2.096 0-4.114.667-6.004.05-7.746-2.526-13.343-9.808-13.343-18.397v-45.466c0-8.589 5.597-15.871 13.344-18.397 1.89-.616 3.908.05 6.003.05 10.685 0 18.347 7.662 18.347 18.347v45.466c0 10.685-7.662 18.347-18.347 18.347z" fill="#ffbd86"/><path d="m208.02 106.5c-2.096 0-4.11.344-6 .96 7.745 2.526 13.347 9.798 13.347 18.387v45.466c0 8.589-5.602 15.86-13.347 18.387 1.89.617 3.904.96 6 .96 10.685 0 19.347-8.662 19.347-19.347v-45.466c0-10.685-8.662-19.347-19.347-19.347z" fill="#f6a96c"/><path d="m324.094 189.66c-2.096 0-4.114.667-6.003.05-7.746-2.526-13.344-9.808-13.344-18.397v-35.466c0-8.589 5.597-15.871 13.344-18.397 1.89-.616 3.908.05 6.003.05 10.685 0 18.347 7.662 18.347 18.347v35.466c0 10.685-7.662 18.347-18.347 18.347z" fill="#ffbd86"/><path d="m324.094 116.5c-2.096 0-4.11.344-6 .96 7.746 2.526 13.347 9.798 13.347 18.387v35.466c0 8.589-5.602 15.86-13.347 18.387 1.89.617 3.904.96 6 .96 10.685 0 19.347-8.662 19.347-19.347v-35.466c0-10.685-8.662-19.347-19.347-19.347z" fill="#f6a96c"/><path d="m246.714 189.66c-2.096 0-4.114.667-6.003.05-7.746-2.526-13.344-9.808-13.344-18.397v-53.466c0-8.589 5.597-15.871 13.344-18.397 1.89-.616 3.908.05 6.003.05 10.685 0 18.347 7.662 18.347 18.347v53.466c0 10.685-7.662 18.347-18.347 18.347z" fill="#ffbd86"/><path d="m246.714 98.5c-2.096 0-4.11.344-6 .96 7.745 2.526 13.347 9.798 13.347 18.387v53.466c0 8.589-5.602 15.86-13.347 18.387 1.89.617 3.904.96 6 .96 10.685 0 19.347-8.662 19.347-19.347v-53.466c0-10.685-8.662-19.347-19.347-19.347z" fill="#f6a96c"/><path d="m285.404 189.66c-2.096 0-4.114.667-6.004.05-7.746-2.526-13.344-9.808-13.344-18.397v-45.466c0-8.589 5.597-15.871 13.344-18.397 1.89-.616 3.908.05 6.004.05 10.685 0 18.347 7.662 18.347 18.347v45.466c0 10.685-7.662 18.347-18.347 18.347z" fill="#ffbd86"/><path d="m285.404 106.5c-2.096 0-4.11.344-6 .96 7.745 2.526 13.347 9.798 13.347 18.387v45.466c0 8.589-5.602 15.86-13.347 18.387 1.89.617 3.904.96 6 .96 10.685 0 19.347-8.662 19.347-19.347v-45.466c0-10.685-8.662-19.347-19.347-19.347z" fill="#f6a96c"/><path d="m243.496 225.94c0-37.969-36.521-44.614-44.511-45.613-.874-.109-1.532-.847-1.532-1.728v-.026c0-.961.779-1.74 1.74-1.74h17.326c14.898 0 26.976-12.078 26.976-26.976v-3c0-3.64-2.951-3.591-6.591-3.591h-46.797c-12.037 0-21.795 9.758-21.795 21.795v41.63c0 4.64 1.575 9.143 4.467 12.771z" fill="#fed2a4"/><path d="m443.204 290.071h-52.204c-8.284 0-15-6.716-15-15v-193.161c0-8.284 6.716-15 15-15h52.203c8.284 0 15 6.716 15 15v193.161c.001 8.285-6.715 15-14.999 15z" fill="#fe646f"/><path d="m443.204 66.91h-20c8.284 0 15 6.716 15 15v193.162c0 8.284-6.716 15-15 15h20c8.284 0 15-6.716 15-15v-193.162c0-8.284-6.716-15-15-15z" fill="#fd4755"/><path d="m120.877 290.071h-52.203c-8.284 0-15-6.716-15-15v-193.161c0-8.284 6.716-15 15-15h52.203c8.284 0 15 6.716 15 15v193.161c0 8.285-6.715 15-15 15z" fill="#fe646f"/><path d="m120.877 66.91h-20c8.284 0 15 6.716 15 15v193.162c0 8.284-6.716 15-15 15h20c8.284 0 15-6.716 15-15v-193.162c0-8.284-6.715-15-15-15z" fill="#fd4755"/></g><path d="m489.378 104.633h-23.674v-22.723c0-12.407-10.094-22.5-22.5-22.5h-52.204c-12.406 0-22.5 10.093-22.5 22.5v54.599h-17.559v-.666c0-14.801-12.042-26.843-26.843-26.843-5.492 0-10.603 1.661-14.861 4.503-4.477-8.607-13.475-14.503-23.829-14.503-5.844 0-11.253 1.882-15.665 5.065-4.698-7.82-13.261-13.065-23.029-13.065s-18.331 5.245-23.029 13.065c-4.412-3.182-9.821-5.065-15.665-5.065-14.803 0-26.847 12.043-26.847 26.847v11.233h-37.796v-55.17c0-12.407-10.093-22.5-22.5-22.5h-52.203c-12.407 0-22.5 10.093-22.5 22.5v22.731h-23.674c-12.407 0-22.5 10.093-22.5 22.5v27.829c0 4.142 3.358 7.5 7.5 7.5s7.5-3.358 7.5-7.5v-27.829c0-4.136 3.364-7.5 7.5-7.5h23.674v117.707h-23.674c-4.136 0-7.5-3.364-7.5-7.5v-42.192c0-4.142-3.358-7.5-7.5-7.5s-7.5 3.358-7.5 7.5v42.192c0 12.407 10.093 22.5 22.5 22.5h23.674v22.723c0 12.407 10.093 22.5 22.5 22.5h52.204c12.407 0 22.5-10.093 22.5-22.5v-54.6h20.879c.066 0 .129-.008.195-.01.724 1.283 1.541 2.516 2.464 3.675.002.003.005.006.008.009.002.002.003.005.005.007l27.042 33.737c.355.442.549.997.549 1.564v170.515c0 12.407 10.093 22.5 22.5 22.5h81.971c12.406 0 22.5-10.093 22.5-22.5v-59.341c0-4.142-3.358-7.5-7.5-7.5-4.143 0-7.5 3.358-7.5 7.5v59.341c0 4.136-3.364 7.5-7.5 7.5h-81.971c-4.136 0-7.5-3.364-7.5-7.5v-170.515c0-3.965-1.366-7.852-3.845-10.945l-27.028-33.72c-.001-.001-.001-.001-.002-.002-1.827-2.291-2.832-5.167-2.832-8.096v-41.63c0-7.882 6.413-14.295 14.295-14.295h45.867c-.477 10.319-9.021 18.567-19.455 18.567h-17.326c-5.095 0-9.24 4.145-9.24 9.266 0 4.652 3.484 8.594 8.101 9.169 8.901 1.114 37.942 7.157 37.942 38.171 0 4.142 3.358 7.5 7.5 7.5s7.5-3.358 7.5-7.5c0-1.864-.101-3.68-.259-5.468h85.204v3.16c0 5.716-2.799 11.081-7.485 14.352l-14.479 10.102c-4.688 3.271-7.485 8.636-7.485 14.352v75.504c0 4.142 3.357 7.5 7.5 7.5 4.142 0 7.5-3.358 7.5-7.5v-75.504c0-.817.399-1.583 1.068-2.05l14.479-10.102c8.705-6.074 13.902-16.038 13.902-26.653v-3.16h17.558v54.6c0 12.407 10.094 22.5 22.5 22.5h52.203c12.406 0 22.5-10.093 22.5-22.5v-22.731h23.674c12.406 0 22.5-10.093 22.5-22.5v-102.707c.001-12.407-10.093-22.5-22.499-22.5zm-165.28 19.367c6.53 0 11.843 5.312 11.843 11.843v35.474c0 6.53-5.313 11.843-11.843 11.843s-11.843-5.313-11.843-11.843v-.001c0-.001 0-.002 0-.003v-35.47c0-6.53 5.313-11.843 11.843-11.843zm-38.689-10c6.532 0 11.847 5.314 11.847 11.847v45.466c0 6.532-5.314 11.847-11.848 11.847-6.532 0-11.847-5.314-11.847-11.847v-45.466c0-6.532 5.314-11.847 11.848-11.847zm-77.389 0c6.533 0 11.847 5.314 11.847 11.847v9.918h-23.694v-9.918c0-6.532 5.315-11.847 11.847-11.847zm-79.643 161.071c0 4.136-3.364 7.5-7.5 7.5h-52.203c-4.135 0-7.5-3.364-7.5-7.5v-193.161c0-4.136 3.365-7.5 7.5-7.5h52.204c4.136 0 7.5 3.364 7.5 7.5v193.161zm15-122.991h20.478c-1.944 3.915-3.042 8.321-3.042 12.98v40.411h-17.436zm91.49-16.315v-17.918c0-6.533 5.314-11.847 11.847-11.847 6.532 0 11.847 5.314 11.847 11.847v53.466c0 6.532-5.314 11.847-11.847 11.847-4.157 0-7.838-2.121-9.957-5.412 8.621-6.273 14.238-16.437 14.238-27.891v-3c0-4.737-2.501-8.529-6.688-10.142-2.467-.95-4.997-.939-7.262-.949h-2.178zm12.353 69.706c-1.066-2.644-2.348-5.163-3.857-7.542 1.101.136 2.214.23 3.351.23 7.595 0 14.459-3.176 19.347-8.263 4.888 5.087 11.752 8.263 19.347 8.263s14.458-3.175 19.346-8.261c4.888 5.086 11.75 8.261 19.344 8.261 14.801 0 26.843-12.042 26.843-26.843v-19.808h17.559v53.962h-121.28zm249.658 24.369c0 4.136-3.364 7.5-7.5 7.5h-23.674v-30.337c0-4.142-3.357-7.5-7.5-7.5s-7.5 3.358-7.5 7.5v68.069c0 4.136-3.364 7.5-7.5 7.5h-52.204c-4.136 0-7.5-3.364-7.5-7.5v-193.162c0-4.136 3.364-7.5 7.5-7.5h52.203c4.136 0 7.5 3.364 7.5 7.5v92.407c0 4.142 3.357 7.5 7.5 7.5s7.5-3.358 7.5-7.5v-54.684h23.674c4.136 0 7.5 3.364 7.5 7.5v102.707z"/></g></svg>