<svg height="480pt" viewBox="0 0 480 480" width="480pt" xmlns="http://www.w3.org/2000/svg"><path d="m32 384h208v16h-208zm0 0"/><path d="m136 456c-13.253906 0-24-10.746094-24-24s10.746094-24 24-24 24 10.746094 24 24-10.746094 24-24 24zm0-32c-4.417969 0-8 3.582031-8 8s3.582031 8 8 8 8-3.582031 8-8-3.582031-8-8-8zm0 0"/><path d="m256 440c0 13.253906-10.746094 24-24 24h-192c-13.253906 0-24-10.746094-24-24v-400c0-13.253906 10.746094-24 24-24h16v8c0 13.253906 10.746094 24 24 24h112c13.253906 0 24-10.746094 24-24v-8h16c13.253906 0 24 10.746094 24 24v56h16v-56c-.027344-22.082031-17.917969-39.9726562-40-40h-192c-22.082031.0273438-39.9726562 17.917969-40 40v400c.0273438 22.082031 17.917969 39.972656 40 40h192c22.082031-.027344 39.972656-17.917969 40-40v-184h-16zm-184-424h128v8c0 4.417969-3.582031 8-8 8h-112c-4.417969 0-8-3.582031-8-8zm0 0"/><path d="m112 112v128h368v-128zm352 112h-336v-96h336zm0 0"/><path d="m152.289062 198.929688 15.710938-9.074219v18.144531h16v-18.144531l15.710938 9.074219 8-13.859376-15.710938-9.070312 15.710938-9.070312-8-13.859376-15.710938 9.074219v-18.144531h-16v18.144531l-15.710938-9.074219-8 13.859376 15.710938 9.070312-15.710938 9.070312zm0 0"/><path d="m232.289062 198.929688 15.710938-9.074219v18.144531h16v-18.144531l15.710938 9.074219 8-13.859376-15.710938-9.070312 15.710938-9.070312-8-13.859376-15.710938 9.074219v-18.144531h-16v18.144531l-15.710938-9.074219-8 13.859376 15.710938 9.070312-15.710938 9.070312zm0 0"/><path d="m312.289062 198.929688 15.710938-9.074219v18.144531h16v-18.144531l15.710938 9.074219 8-13.859376-15.710938-9.070312 15.710938-9.070312-8-13.859376-15.710938 9.074219v-18.144531h-16v18.144531l-15.710938-9.074219-8 13.859376 15.710938 9.070312-15.710938 9.070312zm0 0"/><path d="m392.289062 198.929688 15.710938-9.074219v18.144531h16v-18.144531l15.710938 9.074219 8-13.859376-15.710938-9.070312 15.710938-9.070312-8-13.859376-15.710938 9.074219v-18.144531h-16v18.144531l-15.710938-9.074219-8 13.859376 15.710938 9.070312-15.710938 9.070312zm0 0"/></svg>