<?xml version="1.0" encoding="iso-8859-1"?>
<!-- Generator: Adobe Illustrator 19.0.0, SVG Export Plug-In . SVG Version: 6.00 Build 0)  -->
<svg version="1.1" id="Capa_1" xmlns="http://www.w3.org/2000/svg" xmlns:xlink="http://www.w3.org/1999/xlink" x="0px" y="0px"
	 viewBox="0 0 385.561 385.561" style="enable-background:new 0 0 385.561 385.561;" xml:space="preserve">
<g>
	<g>
		<g>
			<path d="M158.312,359.801c-0.006,0-0.013,0-0.019,0c-0.007,0-0.014,0-0.021,0H158.312z"/>
			<path d="M237.392,168.681c-43.741-43.741-114.659-43.741-158.4,0c-43.697,43.781-43.629,114.695,0.152,158.392
				c21.005,20.965,49.472,32.736,79.149,32.728c29.665,0.032,58.125-11.74,79.099-32.72
				C281.133,283.34,281.133,212.422,237.392,168.681z M229.472,311.481c-2.209-2.209-5.791-2.209-8,0c-2.209,2.209-2.209,5.791,0,8
				l4,4c-17.073,15.338-38.882,24.372-61.8,25.6v-5.52c0-3.06-2.48-5.54-5.54-5.54c-3.06,0-5.54,2.48-5.54,5.54v5.52
				c-22.918-1.231-44.725-10.264-61.8-25.6l4-4c2.209-2.209,2.209-5.791,0-8c-2.209-2.209-5.791-2.209-8,0l-4,4
				c-15.336-17.075-24.369-38.882-25.6-61.8h5.52c3.06,0,5.54-2.48,5.54-5.54s-2.48-5.54-5.54-5.54l0.28-0.32h-5.52
				c1.228-22.918,10.262-44.727,25.6-61.8l4,4c2.209,2.209,5.791,2.209,8,0c2.209-2.209,2.209-5.791,0-8l-4-4
				c17.074-15.263,38.849-24.239,61.72-25.44v5.52c0,3.06,2.48,5.54,5.54,5.54c3.06,0,5.54-2.48,5.54-5.54v-5.52
				c22.924,1.281,44.719,10.372,61.76,25.76l-4,4c-2.209,2.209-2.209,5.791,0,8c2.209,2.209,5.791,2.209,8,0l4-4
				c15.338,17.073,24.372,38.881,25.6,61.8h-5.68c-3.06,0-5.54,2.48-5.54,5.54s2.48,5.54,5.54,5.54h5.52
				c-1.228,22.919-10.262,44.727-25.6,61.8L229.472,311.481z"/>
		</g>
	</g>
</g>
<g>
	<g>
		<path d="M158.156,110.041c-76.083,0.032-137.734,61.735-137.702,137.818c0.015,36.511,14.524,71.522,40.338,97.342
			c25.823,25.897,60.909,40.424,97.48,40.36c76.083-0.032,137.734-61.735,137.702-137.818
			C295.942,171.661,234.239,110.009,158.156,110.041z M247.752,337.586c-49.525,49.418-129.734,49.332-179.152-0.193
			c-23.726-23.777-37.037-56.003-37.007-89.592c-0.014-33.615,13.374-65.848,37.2-89.56c49.525-49.418,129.734-49.332,179.152,0.193
			C297.363,207.958,297.277,288.168,247.752,337.586z"/>
	</g>
</g>
<g>
	<g>
		<path d="M187.592,242.281h-23.8v-53.08c0-3.06-2.48-5.54-5.54-5.54c-3.06,0-5.54,2.48-5.54,5.54v58.6
			c-0.022,3.049,2.431,5.538,5.48,5.56c0.027,0,0.054,0,0.08,0h29.32c3.06,0,5.54-2.48,5.54-5.54
			C193.132,244.762,190.652,242.281,187.592,242.281z"/>
	</g>
</g>
<g>
	<g>
		<path d="M359.312,44.121h-25.48l29.64-34.68c2.166-2.146,2.182-5.641,0.036-7.806c-1.065-1.075-2.524-1.665-4.036-1.634h-35.6
			c-3.049,0-5.52,2.471-5.52,5.52c0,0.013,0,0.027,0,0.04h0c0,3.049,2.471,5.52,5.52,5.52h23.64l-29.88,35
			c-1.99,2.31-1.731,5.795,0.579,7.785c0.955,0.822,2.162,1.294,3.421,1.335h37.68c3.06,0,5.54-2.48,5.54-5.54
			C364.852,46.602,362.372,44.121,359.312,44.121z"/>
	</g>
</g>
<g>
	<g>
		<path d="M288.792,55.281L288.792,55.281c0-3.049-2.471-5.52-5.52-5.52h-35.76c-3.06,0-5.54,2.48-5.54,5.54
			c0,3.06,2.48,5.54,5.54,5.54h23.64l-29.88,35c-1.99,2.31-1.731,5.795,0.579,7.785c0.955,0.822,2.162,1.294,3.421,1.335h37.68
			c3.06,0,5.54-2.48,5.54-5.54s-2.48-5.54-5.54-5.54h-25.48l29.64-34.68C288.175,58.172,288.78,56.76,288.792,55.281z"/>
	</g>
</g>
<g>
</g>
<g>
</g>
<g>
</g>
<g>
</g>
<g>
</g>
<g>
</g>
<g>
</g>
<g>
</g>
<g>
</g>
<g>
</g>
<g>
</g>
<g>
</g>
<g>
</g>
<g>
</g>
<g>
</g>
</svg>
