<svg id="Layer_3" enable-background="new 0 0 64 64" height="512" viewBox="0 0 64 64" width="512" xmlns="http://www.w3.org/2000/svg"><g><g><circle cx="25" cy="39" fill="#243242" r="23"/></g><g><path d="m41.822 23.323c-4.198-4.504-10.179-7.323-16.822-7.323-12.703 0-23 10.297-23 23 0 .642.033 1.276.085 1.905 2.416.488 4.915.746 7.474.746 13.714 0 25.707-7.353 32.263-18.328z" fill="#4d5d7a"/></g><g><path d="m42.162 30.838c1.179 2.473 1.838 5.24 1.838 8.162 0 10.493-8.507 19-19 19s-19-8.507-19-19 8.507-19 19-19c6.893 0 12.929 3.671 16.259 9.164z" fill="#f5ba5b"/></g><g><path d="m39.512 26.75c-3.486-4.125-8.689-6.75-14.512-6.75-10.493 0-19 8.507-19 19 0 .847.075 1.675.182 2.493 1.113.099 2.238.159 3.377.159 12.232-.001 23.095-5.851 29.953-14.902z" fill="#f8cf6a"/></g><g><path d="m60 1.985h-20c-1.105 0-2 .895-2 2v16.015c0 1.105.895 2 2 2h4.6l-5.6 12 12-12h9c1.105 0 2-.895 2-2v-16.015c0-1.105-.895-2-2-2z" fill="#cbc3b6"/></g><g><path d="m38 3.985v16.015c0 1.105.895 2 2 2h2.583c2.893-5.323 4.536-11.424 4.536-17.908 0-.708-.023-1.409-.062-2.107h-7.057c-1.105 0-2 .895-2 2z" fill="#e7e4dd"/></g><g><path d="m50 17.825-5.823-5.416c-1.508-1.402-1.576-3.843-.15-5.335 1.234-1.291 3.187-1.436 4.582-.341l1.391 1.092 1.391-1.091c1.396-1.095 3.349-.95 4.582.341 1.426 1.492 1.358 3.933-.15 5.335z" fill="#ca2b1d"/></g><g><path d="m44.027 7.074c-1.426 1.492-1.358 3.933.15 5.335l1.632 1.518c.684-2.528 1.119-5.158 1.258-7.867-1.081-.184-2.219.156-3.04 1.014z" fill="#ed634a"/></g><g><path d="m25 63c-13.233 0-24-10.767-24-24s10.767-24 24-24c4.873 0 9.564 1.452 13.567 4.2l-1.133 1.648c-3.666-2.517-7.966-3.848-12.434-3.848-12.131 0-22 9.869-22 22s9.869 22 22 22 22-9.869 22-22c0-3.726-.948-7.408-2.743-10.647l1.75-.969c1.958 3.535 2.993 7.552 2.993 11.616 0 13.233-10.767 24-24 24z"/></g><g><path d="m25 59c-11.028 0-20-8.972-20-20s8.972-20 20-20c7.055 0 13.453 3.605 17.114 9.645l-1.711 1.037c-3.295-5.436-9.053-8.682-15.403-8.682-9.925 0-18 8.075-18 18s8.075 18 18 18 18-8.075 18-18c0-2.708-.586-5.309-1.74-7.732l1.805-.86c1.284 2.694 1.935 5.584 1.935 8.592 0 11.028-8.972 20-20 20z"/></g><g><path d="m21.001 53c-.025 0-.05-.001-.074-.003-.489-.036-.881-.421-.923-.911l-1.693-19.472-3.416 6.833c-.17.339-.516.553-.895.553h-5v-2h4.382l4.724-9.447c.2-.399.641-.615 1.082-.535.439.084.77.45.809.896l1.463 16.836 3.567-14.981c.105-.442.496-.758.95-.768h.022c.445 0 .839.295.962.725l2.756 9.648 2.295-14.529c.074-.473.474-.827.952-.844.493-.017.902.309 1.01.774l2.822 12.225h4.204v2h-5c-.466 0-.87-.321-.975-.775l-1.841-7.98-2.197 13.911c-.072.463-.458.814-.927.842-.458.042-.893-.272-1.022-.723l-2.95-10.327-4.115 17.284c-.108.453-.513.768-.972.768z"/></g><g><path d="m39 35c-.2 0-.4-.06-.573-.181-.398-.278-.538-.802-.333-1.242l4.935-10.577h-3.029c-1.654 0-3-1.346-3-3v-16.015c0-1.654 1.346-3 3-3h20c1.654 0 3 1.346 3 3v16.015c0 1.654-1.346 3-3 3h-8.586l-11.707 11.707c-.193.193-.449.293-.707.293zm1-32.015c-.552 0-1 .449-1 1v16.015c0 .551.448 1 1 1h4.6c.342 0 .66.174.844.463.184.288.207.65.062.96l-3.199 6.857 7.986-7.987c.187-.188.441-.293.707-.293h9c.552 0 1-.449 1-1v-16.015c0-.551-.448-1-1-1z"/></g><g><path d="m50 18.825c-.244 0-.489-.089-.681-.268l-5.823-5.416c-.926-.86-1.456-2.043-1.494-3.331-.038-1.292.424-2.509 1.302-3.427 1.583-1.656 4.128-1.845 5.923-.437l.773.608.773-.607c1.791-1.405 4.34-1.22 5.923.436.878.919 1.34 2.136 1.302 3.428-.038 1.288-.568 2.471-1.494 3.331l-5.823 5.416c-.192.177-.437.267-.681.267zm-3.495-11.828c-.637 0-1.27.26-1.756.769-.504.528-.771 1.233-.748 1.986.022.749.326 1.433.856 1.925l5.143 4.782 5.143-4.782c.53-.493.834-1.177.856-1.925.022-.752-.244-1.458-.748-1.986-.884-.923-2.247-1.027-3.243-.245l-1.391 1.091c-.361.284-.873.284-1.234 0l-1.391-1.092c-.447-.351-.969-.523-1.487-.523z"/></g></g></svg>